<svg width="240" height="240" viewBox="0 0 240 240" fill="none" xmlns="http://www.w3.org/2000/svg">
<path fill-rule="evenodd" clip-rule="evenodd" d="M239.995 120C239.998 119.723 240 119.445 240 119.167C240 25.8333 211.649 0 120.759 0C120.505 0 120.252 0.00148049 120 0.00443319C119.748 0.00148049 119.495 0 119.241 0C28.3511 0 0 25.8333 0 119.167C0 119.445 0.00171144 119.723 0.00512411 120C0.00171144 120.277 0 120.555 0 120.833C0 214.167 28.3511 240 119.241 240C119.495 240 119.748 239.999 120 239.996C120.252 239.999 120.505 240 120.759 240C211.649 240 240 214.167 240 120.833C240 120.555 239.998 120.277 239.995 120V120Z" fill="#FF8800"/>
<path d="M120.232 122.366C140.252 122.366 156.572 106.046 156.572 86.0269C156.572 66.0076 140.252 49.6875 120.232 49.6875C99.9955 49.6875 83.6754 66.0076 83.6754 86.0269C83.6754 106.046 99.9955 122.366 120.232 122.366ZM120.232 71.0124C128.501 71.0124 135.247 77.7581 135.247 86.0269C135.247 94.2958 128.501 101.041 120.232 101.041C111.964 101.041 105.218 94.2958 105.218 86.0269C105 77.7581 111.746 71.0124 120.232 71.0124Z" fill="white"/>
<path d="M134.812 152.178C142.21 150.437 149.391 147.608 155.919 143.474C160.924 140.427 162.447 133.682 159.183 128.677C156.137 123.672 149.391 122.149 144.386 125.413C129.589 134.77 110.223 134.77 95.4261 125.413C90.4213 122.367 83.8933 123.672 80.6292 128.677C77.8004 133.682 79.3236 140.21 84.3285 143.256C90.8565 147.391 98.0373 150.219 105.436 151.96L85.1989 172.197C81.0644 176.332 81.0644 183.077 85.1989 187.212C87.3749 189.388 89.9861 190.258 92.8149 190.258C95.6437 190.258 98.2549 189.17 100.431 187.212L120.45 167.192L140.47 187.212C144.604 191.346 151.35 191.346 155.484 187.212C159.618 183.077 159.618 176.332 155.484 172.197L134.812 152.178Z" fill="white"/>
</svg>
