<svg width="509" height="77" viewBox="0 0 509 77" fill="none" xmlns="http://www.w3.org/2000/svg">
<path d="M103.369 55.0871C111.823 55.0871 118.477 48.5966 118.477 40.3608C118.477 32.125 111.823 25.6346 103.369 25.6346C94.9153 25.6346 88.2612 32.125 88.2612 40.3608C88.2612 48.5966 94.9153 55.0871 103.369 55.0871ZM103.369 47.3422C99.5514 47.3422 96.6061 44.3424 96.6061 40.3608C96.6061 36.3793 99.5514 33.3795 103.369 33.3795C107.187 33.3795 110.132 36.3793 110.132 40.3608C110.132 44.3424 107.187 47.3422 103.369 47.3422Z" fill="white"/>
<path d="M149.811 46.9058H148.993V30.2706C148.993 27.9253 147.357 26.18 144.902 26.18H129.522C127.176 26.18 125.485 27.9253 125.485 30.2706V31.3615C125.485 41.3971 125.322 44.0697 123.522 46.9058H123.249C121.286 46.9058 119.868 48.433 119.868 50.342V57.4324C119.868 59.614 121.504 61.2503 123.686 61.2503C125.867 61.2503 127.558 59.5595 127.558 57.4324V54.5417H145.502V57.4324C145.502 59.614 147.193 61.2503 149.375 61.2503C151.556 61.2503 153.193 59.614 153.193 57.4324V50.342C153.193 48.433 151.775 46.9058 149.811 46.9058ZM131.376 46.9058C132.685 44.3424 133.121 41.888 133.23 33.8158H140.703V46.9058H131.376Z" fill="white"/>
<path d="M180.397 26.18C177.998 26.18 176.143 27.8708 176.143 30.3252V36.3793H165.998V30.3252C165.998 27.8708 164.199 26.18 161.799 26.18C159.453 26.18 157.708 27.8708 157.708 30.3252V50.3965C157.708 52.7963 159.399 54.5417 161.799 54.5417C164.199 54.5417 165.998 52.8509 165.998 50.3965V44.1242H176.143V50.3965C176.143 52.8509 177.998 54.5417 180.397 54.5417C182.743 54.5417 184.434 52.7963 184.434 50.3965V30.3252C184.434 27.9253 182.743 26.18 180.397 26.18Z" fill="white"/>
<path d="M204.57 55.0871C213.024 55.0871 219.678 48.5966 219.678 40.3608C219.678 32.125 213.024 25.6346 204.57 25.6346C196.116 25.6346 189.462 32.125 189.462 40.3608C189.462 48.5966 196.116 55.0871 204.57 55.0871ZM204.57 47.3422C200.752 47.3422 197.806 44.3424 197.806 40.3608C197.806 36.3793 200.752 33.3795 204.57 33.3795C208.388 33.3795 211.333 36.3793 211.333 40.3608C211.333 44.3424 208.388 47.3422 204.57 47.3422Z" fill="white"/>
<path d="M248.762 47.3422L241.945 40.2517L248.544 32.9977C249.362 32.0705 249.69 31.1433 249.69 30.2161C249.69 27.9253 247.944 26.18 245.654 26.18C244.399 26.18 243.254 26.889 242.327 27.9253L233.164 38.1792V30.3252C233.164 27.9253 231.418 26.18 229.073 26.18C226.619 26.18 224.873 27.8708 224.873 30.3252V50.3965C224.873 52.8509 226.619 54.5417 229.073 54.5417C231.418 54.5417 233.164 52.7963 233.164 50.3965V42.7061L242.436 52.7418C243.472 53.8872 244.726 54.5417 246.09 54.5417C248.272 54.5417 250.235 53.069 250.235 50.5601C250.235 49.4693 249.799 48.433 248.762 47.3422Z" fill="white"/>
<path d="M256.957 54.5417C259.957 54.5417 263.011 51.9237 264.429 47.9967C265.684 44.506 266.174 40.0881 266.174 33.9249H273.592V50.3965C273.592 52.7418 275.337 54.5417 277.737 54.5417C280.137 54.5417 281.882 52.7418 281.882 50.342V30.3797C281.882 27.9799 280.137 26.18 277.737 26.18H262.357C259.957 26.18 258.266 27.9799 258.266 30.3797V32.0705C258.266 41.9971 257.393 45.7605 255.648 46.4695C253.957 47.1785 252.866 48.6512 252.866 50.3965C252.866 52.7418 254.612 54.5417 256.957 54.5417Z" fill="white"/>
<path d="M312.733 26.18C310.769 26.18 309.188 27.3799 308.751 29.1798C306.624 26.9981 303.788 25.6891 300.461 25.6891C292.934 25.6891 286.88 31.9069 286.88 40.4154C286.88 48.8693 292.934 55.0871 300.461 55.0871C303.788 55.0871 306.624 53.7781 308.751 51.5964C309.242 53.3418 310.769 54.5417 312.733 54.5417C315.133 54.5417 316.878 52.7963 316.878 50.451V30.2706C316.878 27.8708 315.133 26.18 312.733 26.18ZM301.879 47.3422C298.116 47.3422 295.225 44.3424 295.225 40.3608C295.225 36.4338 298.116 33.434 301.879 33.434C305.697 33.434 308.588 36.4338 308.588 40.3608C308.588 44.3424 305.697 47.3422 301.879 47.3422Z" fill="white"/>
<path d="M337.033 55.0871C343.414 55.0871 348.814 51.5964 348.814 47.6149C348.814 45.7605 347.287 44.3969 345.541 44.3969C342.214 44.3969 341.724 47.1785 337.033 47.1785C333.215 47.1785 330.379 44.2333 330.379 40.3608C330.379 36.4884 333.215 33.5431 337.033 33.5431C341.724 33.5431 342.214 36.3247 345.541 36.3247C347.287 36.3247 348.814 34.9612 348.814 33.1068C348.814 29.1253 343.414 25.6346 337.033 25.6346C328.579 25.6346 322.034 32.125 322.034 40.3608C322.034 48.5966 328.579 55.0871 337.033 55.0871Z" fill="white"/>
<path d="M366.86 55.0871C373.242 55.0871 378.641 51.5964 378.641 47.6149C378.641 45.7605 377.114 44.3969 375.369 44.3969C372.042 44.3969 371.551 47.1785 366.86 47.1785C363.043 47.1785 360.206 44.2333 360.206 40.3608C360.206 36.4884 363.043 33.5431 366.86 33.5431C371.551 33.5431 372.042 36.3247 375.369 36.3247C377.114 36.3247 378.641 34.9612 378.641 33.1068C378.641 29.1253 373.242 25.6346 366.86 25.6346C358.407 25.6346 351.862 32.125 351.862 40.3608C351.862 48.5966 358.407 55.0871 366.86 55.0871Z" fill="white"/>
<path d="M406.287 26.18C403.887 26.18 402.033 27.8708 402.033 30.3252V36.3793H391.888V30.3252C391.888 27.8708 390.088 26.18 387.689 26.18C385.343 26.18 383.598 27.8708 383.598 30.3252V50.3965C383.598 52.7963 385.289 54.5417 387.689 54.5417C390.088 54.5417 391.888 52.8509 391.888 50.3965V44.1242H402.033V50.3965C402.033 52.8509 403.887 54.5417 406.287 54.5417C408.633 54.5417 410.323 52.7963 410.323 50.3965V30.3252C410.323 27.9253 408.633 26.18 406.287 26.18Z" fill="white"/>
<path d="M440.059 26.18C438.859 26.18 437.768 26.6709 436.95 27.5981L425.442 40.7972V30.2706C425.442 27.8708 423.696 26.18 421.351 26.18C419.06 26.18 417.26 27.9253 417.26 30.2706V50.451C417.26 52.7963 419.06 54.5417 421.351 54.5417C422.66 54.5417 423.696 53.9962 424.569 52.96L436.023 39.7609V50.451C436.023 52.7963 437.877 54.5417 440.113 54.5417C442.513 54.5417 444.204 52.8509 444.204 50.451V30.2706C444.204 27.8708 442.459 26.18 440.059 26.18Z" fill="white"/>
<path d="M475.185 47.3422L468.367 40.2517L474.967 32.9977C475.785 32.0705 476.112 31.1433 476.112 30.2161C476.112 27.9253 474.367 26.18 472.076 26.18C470.822 26.18 469.676 26.889 468.749 27.9253L459.586 38.1792V30.3252C459.586 27.9253 457.841 26.18 455.495 26.18C453.041 26.18 451.296 27.8708 451.296 30.3252V50.3965C451.296 52.8509 453.041 54.5417 455.495 54.5417C457.841 54.5417 459.586 52.7963 459.586 50.3965V42.7061L468.858 52.7418C469.894 53.8872 471.149 54.5417 472.512 54.5417C474.694 54.5417 476.658 53.069 476.658 50.5601C476.658 49.4693 476.221 48.433 475.185 47.3422Z" fill="white"/>
<path d="M504.294 26.18C503.094 26.18 502.004 26.6709 501.186 27.5981L489.677 40.7972V30.2706C489.677 27.8708 487.932 26.18 485.587 26.18C483.296 26.18 481.496 27.9253 481.496 30.2706V50.451C481.496 52.7963 483.296 54.5417 485.587 54.5417C486.896 54.5417 487.932 53.9962 488.805 52.96L500.258 39.7609V50.451C500.258 52.7963 502.113 54.5417 504.349 54.5417C506.749 54.5417 508.44 52.8509 508.44 50.451V30.2706C508.44 27.8708 506.694 26.18 504.294 26.18Z" fill="white"/>
<path fill-rule="evenodd" clip-rule="evenodd" d="M38.5512 39.8133C27.6705 39.8133 18.6339 30.7816 18.6339 20.091C18.6339 9.03172 27.6705 0 38.5512 0C49.8007 0 58.4684 9.03172 58.4684 20.091C58.4684 30.7816 49.8007 39.8133 38.5512 39.8133ZM38.5512 11.6122C33.9407 11.6122 30.4367 15.4829 30.4367 20.091C30.4367 24.699 33.9407 28.2011 38.5512 28.2011C43.3461 28.2011 46.6656 24.699 46.6656 20.091C46.6656 15.4829 43.3461 11.6122 38.5512 11.6122ZM46.4812 56.2178L57.7307 67.0928C59.9438 69.4889 59.9438 72.991 57.7307 75.2029C55.3333 77.599 51.6449 77.599 49.8007 75.2029L38.5512 64.1436L27.6705 75.2029C26.5639 76.3088 25.0886 76.8618 23.4288 76.8618C22.1379 76.8618 20.6625 76.3088 19.3716 75.2029C17.1586 72.991 17.1586 69.4889 19.3716 67.0928L30.8056 56.2178C26.5639 54.9276 22.6912 53.2687 19.0028 51.0569C16.2365 49.5823 15.6832 45.8959 17.1586 43.1311C19.0028 40.3662 22.3223 39.629 25.273 41.4722C33.3874 46.4488 43.7149 46.4488 51.8293 41.4722C54.78 39.629 58.284 40.3662 59.9438 43.1311C61.6035 45.8959 60.8658 49.5823 58.284 51.0569C54.78 53.2687 50.7228 54.9276 46.4812 56.2178Z" fill="white"/>
</svg>
