<?xml version="1.0" encoding="utf-8"?>
<!-- Generator: Adobe Illustrator 25.4.1, SVG Export Plug-In . SVG Version: 6.00 Build 0)  -->
<svg version="1.1" id="Слой_1" xmlns="http://www.w3.org/2000/svg" xmlns:xlink="http://www.w3.org/1999/xlink" x="0px" y="0px"
	 viewBox="0 0 240 240" style="enable-background:new 0 0 240 240;" xml:space="preserve">
<style type="text/css">
	.st0{fill-rule:evenodd;clip-rule:evenodd;fill:#FFFFFF;}
	.st1{fill:#FFFFFF;}
</style>
<path class="st0" d="M240,120c0-0.3,0-0.6,0-0.8C240,25.8,211.6,0,120.8,0c-0.3,0-0.5,0-0.8,0c-0.3,0-0.5,0-0.8,0
	C28.4,0,0,25.8,0,119.2c0,0.3,0,0.6,0,0.8c0,0.3,0,0.6,0,0.8C0,214.2,28.4,240,119.2,240c0.3,0,0.5,0,0.8,0c0.3,0,0.5,0,0.8,0
	c90.9,0,119.2-25.8,119.2-119.2C240,120.6,240,120.3,240,120L240,120z"/>
<path class="st1" d="M120.2,122.4c20,0,36.3-16.3,36.3-36.3c0-20-16.3-36.3-36.3-36.3C100,49.7,83.7,66,83.7,86
	C83.7,106,100,122.4,120.2,122.4z M120.2,71c8.3,0,15,6.7,15,15c0,8.3-6.7,15-15,15c-8.3,0-15-6.7-15-15C105,77.8,111.7,71,120.2,71
	z"/>
<path class="st1" d="M134.8,152.2c7.4-1.7,14.6-4.6,21.1-8.7c5-3,6.5-9.8,3.3-14.8c-3-5-9.8-6.5-14.8-3.3c-14.8,9.4-34.2,9.4-49,0
	c-5-3-11.5-1.7-14.8,3.3c-2.8,5-1.3,11.5,3.7,14.6c6.5,4.1,13.7,7,21.1,8.7l-20.2,20.2c-4.1,4.1-4.1,10.9,0,15c2.2,2.2,4.8,3,7.6,3
	c2.8,0,5.4-1.1,7.6-3l20-20l20,20c4.1,4.1,10.9,4.1,15,0c4.1-4.1,4.1-10.9,0-15L134.8,152.2z"/>
</svg>
