<?xml version="1.0" encoding="utf-8"?>
<!-- Generator: Adobe Illustrator 25.4.1, SVG Export Plug-In . SVG Version: 6.00 Build 0)  -->
<svg version="1.1" id="Слой_1" xmlns="http://www.w3.org/2000/svg" xmlns:xlink="http://www.w3.org/1999/xlink" x="0px" y="0px"
	 viewBox="0 0 633 218" style="enable-background:new 0 0 633 218;" xml:space="preserve">
<style type="text/css">
	.st0{clip-path:url(#SVGID_00000057143931928020195870000001246175172139405980_);}
	.st1{fill:#0073E6;}
	.st2{fill:#FFFFFF;}
	.st3{fill:#6B7E99;}
</style>
<g>
	<defs>
		<rect id="SVGID_1_" width="150" height="150"/>
	</defs>
	<clipPath id="SVGID_00000089569568445780092260000005898033162880120729_">
		<use xlink:href="#SVGID_1_"  style="overflow:visible;"/>
	</clipPath>
	<g style="clip-path:url(#SVGID_00000089569568445780092260000005898033162880120729_);">
		<path class="st1" d="M141.9,36.3c-3.7-0.4-36.8-3.8-45.8-0.4c-4.8,1.8-8.7,5.3-11,9.9c-2.3,4.6-2.8,9.8-1.4,14.7
			c0.1,0.4,0.3,0.8,0.4,1.3l0.8,2.2l7.7-2.9L92,59c-1.1-3-0.9-6.2,0.4-9.1c1.3-2.9,3.7-5.1,6.7-6.2c4.3-1.6,19.9-1,33.6,0.1
			c-4.8,5-12.7,13.1-19,18.3c-2.2,1.8-4.1,3.8-5.9,6.1l-2.3,3l-0.3,0.4c-2.5,3.6-3.7,7-6,14.1l-0.4,1.3
			c-7.3,22.5-21.9,34.9-43.5,36.9l7.5-20.8l-7.7-2.8l-11.5,32.1l5.9,0c14.4-0.1,26.7-3.9,36.4-11.3c9.4-7.2,16.4-17.8,20.9-31.5
			l0.4-1.3c3-9.2,3.5-10.8,8.2-15.9c1.9-2.1,4-4.1,6.1-5.9c9.7-8.5,20.9-20.7,23.1-23.1l5.5-6L141.9,36.3z"/>
		<path class="st1" d="M108.7,52.6c0.2-0.7,0.2-1.4,0-2.1c-0.2-0.7-0.6-1.3-1.1-1.8c-0.5-0.5-1.2-0.7-1.9-0.8
			c-0.7-0.1-1.4,0-2.1,0.4c-0.6,0.3-1.2,0.8-1.5,1.5c-0.3,0.6-0.5,1.3-0.4,2c0.1,0.7,0.3,1.4,0.8,1.9c0.4,0.6,1,1,1.7,1.2
			c0.4,0.1,0.9,0.2,1.4,0.2c0.5,0,0.9-0.2,1.3-0.4c0.4-0.2,0.8-0.5,1.1-0.9C108.3,53.4,108.5,53,108.7,52.6z"/>
		<path class="st1" d="M70.3,81.8c6.8-21.2-5.3-44-26.9-51L4.2,18.2l-2.3,7.1C0.2,30.7-0.4,36.4,0.3,42c0.7,5.6,2.5,11.1,5.4,15.9
			c5.2,8.7,13.4,15.2,23.1,18.3L68,88.9L70.3,81.8z M62.7,78.5L31.3,68.4c-7.8-2.5-14.4-7.7-18.6-14.7C10.5,50,9,45.8,8.5,41.5
			c-0.6-4.3-0.2-8.8,1-13l31.4,10.1C58,44.1,67.6,61.9,62.7,78.5z"/>
	</g>
</g>
<path class="st2" d="M142.9,127.7h7.7c1.3,4.2,4.6,6.3,10,6.3c2.6,0,4.7-0.6,6.3-1.8c1.6-1.2,2.4-2.9,2.4-5c0-3.3-2.1-5.3-6.3-6
	l-7.8-1.3c-3.8-0.6-6.7-1.9-8.8-3.9c-2-2.1-3-4.8-3-8.1c0-4.1,1.5-7.5,4.6-10c3.1-2.6,7-3.8,11.5-3.8c4.5,0,8.2,1.1,11.3,3.3
	c3.1,2.2,4.9,5.3,5.6,9.3h-7.7c-1.2-4-4.2-6-9.2-6c-2.3,0-4.3,0.6-6,1.8c-1.6,1.2-2.4,2.8-2.4,4.8c0,3,2,4.8,5.9,5.4l7.8,1.2
	c8.1,1.4,12.2,5.5,12.2,12.5c0,4.4-1.5,7.8-4.5,10.3c-3,2.5-7,3.8-12,3.8c-4.7,0-8.7-1.1-11.9-3.4
	C145.4,135.1,143.5,131.9,142.9,127.7z M191.6,140h-7.3V93.5h7.3v27.5l12.5-13.6h8.6l-14.1,15.3L213,140h-8.8l-12.5-15.2V140z
	 M239.4,107.4h7.9l-17.6,44.9h-7.8l5.1-12.8l-12.5-32.1h7.9l8.6,23.4L239.4,107.4z M285.3,109.3c0,2.9-0.8,5.5-2.3,7.9
	c-1.5,2.4-3.7,4.2-6.4,5.3l11.1,17.4H279l-10.2-16.1h-8.1V140h-7.6V94.9h16.8c4.9,0,8.6,1.4,11.3,4.2
	C283.9,101.8,285.3,105.2,285.3,109.3z M269.1,101.7h-8.4v15.6h8.4c2.7,0,4.8-0.7,6.2-2.2c1.5-1.5,2.2-3.3,2.2-5.6
	c0-2.3-0.7-4.2-2.2-5.6C273.9,102.4,271.8,101.7,269.1,101.7z M320.9,125.8h-23v0.1c0,2.5,0.8,4.6,2.4,6.3s3.7,2.5,6.3,2.5
	c1.8,0,3.3-0.4,4.4-1.1c1.2-0.8,1.9-1.6,2.2-2.4h7.2c-0.5,2.5-2,4.7-4.4,6.7c-2.3,2-5.5,2.9-9.6,2.9c-4.9,0-8.8-1.5-11.7-4.5
	c-2.9-3.1-4.4-7.2-4.4-12.5s1.5-9.4,4.4-12.5c2.9-3.1,6.7-4.7,11.3-4.7c4.5,0,8.1,1.5,10.8,4.4c2.7,2.9,4,6.9,4,11.8V125.8z
	 M306.1,112.7c-2.3,0-4.2,0.7-5.6,2c-1.4,1.4-2.2,3.2-2.4,5.6h15.6c-0.1-2.4-0.8-4.2-2.2-5.6C310.1,113.4,308.3,112.7,306.1,112.7z
	 M350.6,107.4h7v30.5c0,4.8-1.4,8.6-4.2,11.3c-2.8,2.8-6.6,4.2-11.5,4.2c-4.4,0-7.8-1-10.3-3.1c-2.5-2-3.9-4.5-4.2-7.3h7.2
	c1,2.8,3.5,4.2,7.4,4.2c2.6,0,4.7-0.8,6.1-2.5c1.5-1.7,2.2-4,2.2-6.9v-2.7c-2.1,3.1-5.4,4.7-9.9,4.7c-4,0-7.4-1.5-10.2-4.4
	c-2.8-2.9-4.2-7-4.2-12.2c0-5.1,1.4-9.2,4.2-12.2c2.9-3,6.3-4.5,10.4-4.5c2.4,0,4.4,0.5,6.1,1.4c1.7,0.9,3,2,3.8,3.5V107.4z
	 M341.9,133.5c2.6,0,4.7-0.9,6.3-2.8c1.6-1.9,2.4-4.3,2.4-7.3v-0.3c0-3-0.8-5.4-2.4-7.3c-1.6-1.9-3.7-2.8-6.3-2.8
	c-2.5,0-4.6,1-6.1,2.9c-1.5,1.9-2.3,4.4-2.3,7.4s0.8,5.4,2.3,7.4C337.3,132.5,339.4,133.5,341.9,133.5z M373.7,93.5V140h-7.3V93.5
	H373.7z M389.9,107.4V140h-7.3v-32.6H389.9z M386.3,93.2c1.3,0,2.3,0.4,3.2,1.3c0.9,0.9,1.3,1.9,1.3,3.1c0,1.3-0.4,2.3-1.3,3.2
	c-0.9,0.9-1.9,1.3-3.2,1.3c-1.2,0-2.3-0.4-3.2-1.3c-0.9-0.9-1.3-1.9-1.3-3.2c0-1.2,0.4-2.3,1.3-3.1C383.9,93.6,385,93.2,386.3,93.2z
	 M404.1,130.6c0.7,2.8,3,4.2,7,4.2c1.9,0,3.3-0.4,4.4-1.1c1.1-0.7,1.6-1.7,1.6-3.1c0-2-1.4-3.2-4.3-3.6l-5.8-0.8
	c-6.4-0.8-9.5-3.9-9.5-9.2c0-3.1,1.2-5.6,3.6-7.6c2.5-2,5.6-2.9,9.3-2.9c3.6,0,6.6,0.9,9,2.6c2.4,1.7,3.8,4.1,4.3,7.2h-7.1
	c-0.8-2.6-2.9-3.8-6.3-3.8c-1.7,0-3.1,0.4-4.1,1.2c-1,0.8-1.5,1.7-1.5,2.9c0,2,1.4,3.1,4.1,3.5l5.8,0.7c2.9,0.4,5.3,1.3,7,2.9
	c1.8,1.5,2.7,3.7,2.7,6.6c0,3.3-1.2,5.9-3.7,7.8c-2.5,1.8-5.6,2.8-9.5,2.8c-3.8,0-7-0.8-9.7-2.5c-2.7-1.7-4.2-4.3-4.5-7.7H404.1z
	 M443.6,127.7h7.7c1.3,4.2,4.6,6.3,10,6.3c2.6,0,4.7-0.6,6.3-1.8c1.6-1.2,2.4-2.9,2.4-5c0-3.3-2.1-5.3-6.3-6L456,120
	c-3.8-0.6-6.7-1.9-8.8-3.9c-2-2.1-3-4.8-3-8.1c0-4.1,1.5-7.5,4.6-10c3.1-2.6,7-3.8,11.5-3.8c4.5,0,8.2,1.1,11.3,3.3
	c3.1,2.2,4.9,5.3,5.6,9.3h-7.7c-1.2-4-4.2-6-9.2-6c-2.3,0-4.3,0.6-6,1.8c-1.6,1.2-2.4,2.8-2.4,4.8c0,3,2,4.8,5.9,5.4l7.8,1.2
	c8.1,1.4,12.2,5.5,12.2,12.5c0,4.4-1.5,7.8-4.5,10.3c-3,2.5-7,3.8-12,3.8c-4.7,0-8.7-1.1-11.9-3.4
	C446.2,135.1,444.3,131.9,443.6,127.7z M494.3,128.9c0,1.8,0.4,3.1,1.2,3.8c0.8,0.6,2,1,3.5,1h2v6.4h-3.3c-3.7,0-6.4-0.9-8.1-2.6
	c-1.8-1.7-2.6-4.4-2.6-8.1v-15.8h-5.2v-6.2h5.2v-8.5h7.3v8.5h6.7v6.2h-6.7V128.9z M536.1,140h-7v-3.8c-0.9,1.3-2.2,2.4-3.9,3.3
	c-1.7,0.9-3.6,1.3-5.8,1.3c-3.4,0-6.3-1-8.6-3.1c-2.3-2.1-3.4-5.3-3.4-9.6v-20.7h7.3v19.3c0,2.5,0.6,4.4,1.8,5.6
	c1.2,1.2,2.8,1.9,4.9,1.9c2,0,3.8-0.7,5.2-2c1.5-1.3,2.2-3.3,2.2-5.9v-18.9h7.3V140z M557.6,140.8c-4,0-7.4-1.5-10.2-4.5
	c-2.8-3-4.2-7.2-4.2-12.5s1.4-9.5,4.2-12.5c2.9-3,6.3-4.5,10.4-4.5c4.4,0,7.7,1.5,9.7,4.4V93.5h7.3V140h-7v-4.2
	C565.6,139.1,562.2,140.8,557.6,140.8z M559,113.1c-2.6,0-4.6,1-6.1,2.9c-1.5,1.9-2.3,4.5-2.3,7.7s0.8,5.8,2.3,7.7
	c1.5,1.9,3.6,2.9,6.1,2.9c2.6,0,4.7-0.9,6.3-2.8c1.6-1.9,2.4-4.5,2.4-7.7v-0.3c0-3.2-0.8-5.7-2.4-7.6
	C563.7,114,561.6,113.1,559,113.1z M590.8,107.4V140h-7.3v-32.6H590.8z M587.2,93.2c1.3,0,2.3,0.4,3.2,1.3c0.9,0.9,1.3,1.9,1.3,3.1
	c0,1.3-0.4,2.3-1.3,3.2c-0.9,0.9-1.9,1.3-3.2,1.3c-1.2,0-2.3-0.4-3.2-1.3c-0.9-0.9-1.3-1.9-1.3-3.2c0-1.2,0.4-2.3,1.3-3.1
	C584.9,93.6,586,93.2,587.2,93.2z M602.3,111.3c3-3.2,6.9-4.7,11.6-4.7c4.8,0,8.6,1.6,11.6,4.7c3,3.2,4.5,7.3,4.5,12.4
	s-1.5,9.2-4.5,12.4c-2.9,3.2-6.8,4.7-11.6,4.7c-4.8,0-8.7-1.6-11.6-4.7c-2.9-3.2-4.4-7.3-4.4-12.4S599.3,114.5,602.3,111.3z
	 M607.6,131.4c1.6,2,3.7,2.9,6.3,2.9c2.6,0,4.7-1,6.3-2.9c1.6-2,2.4-4.5,2.4-7.7s-0.8-5.7-2.4-7.7c-1.5-2-3.6-2.9-6.3-2.9
	c-2.6,0-4.8,1-6.3,2.9c-1.5,2-2.3,4.5-2.3,7.7S606.1,129.4,607.6,131.4z"/>
<path class="st3" d="M165.3,198v7.8h-3.1V201h-18.8v4.8h-3.1V198h1.9c0.9-0.6,1.6-1.7,2.1-3.1c0.5-1.4,0.8-3.5,1-6.2l0.9-13h16V198
	H165.3z M148.4,188.7c-0.2,2.8-0.5,4.8-0.8,6.2c-0.3,1.4-0.8,2.4-1.5,3.2H159v-19.4h-9.9L148.4,188.7z M184.5,192.9h-13.2v0.1
	c0,1.6,0.5,3,1.5,4.1s2.4,1.6,4,1.6c1.2,0,2.1-0.2,2.8-0.7c0.8-0.5,1.2-1,1.4-1.6h3.1c-0.3,1.3-1.1,2.4-2.3,3.5s-3,1.6-5.1,1.6
	c-2.6,0-4.8-0.9-6.4-2.6c-1.6-1.7-2.4-4-2.4-6.9c0-2.9,0.8-5.2,2.4-6.9c1.6-1.7,3.6-2.6,6.2-2.6c2.4,0,4.3,0.8,5.8,2.4
	c1.4,1.6,2.2,3.7,2.2,6.4V192.9z M176.5,185.2c-1.5,0-2.7,0.5-3.6,1.4c-0.9,0.9-1.4,2.1-1.5,3.6h10c-0.1-1.6-0.5-2.8-1.4-3.7
	C179.1,185.7,177.9,185.2,176.5,185.2z M186.5,201.1v-2.8h0.5c1.1,0,1.9-0.3,2.3-0.9c0.5-0.6,0.7-1.7,0.9-3.3l0.9-11.1h12.5V201
	h-3.1v-15.4h-6.7l-0.7,8.6c-0.2,2.4-0.7,4.2-1.7,5.3c-0.9,1.1-2.3,1.6-4.1,1.6H186.5z M219.8,189c0-1.2-0.4-2.2-1.2-2.8
	c-0.7-0.6-1.7-1-3-1c-2.2,0-3.6,0.8-4.2,2.4h-3c0.3-1.5,1.1-2.7,2.3-3.7c1.3-1,2.9-1.5,4.9-1.5c2.1,0,3.9,0.6,5.1,1.8
	c1.3,1.2,1.9,2.7,1.9,4.8v12H220v-2.2c-1.4,1.7-3.3,2.6-5.8,2.6c-1.8,0-3.3-0.5-4.5-1.5c-1.2-1-1.8-2.4-1.8-4.1
	c0-1.8,0.6-3.1,1.9-4.1c1.3-1,3-1.5,5.2-1.5h4.8V189z M214.5,198.7c1.5,0,2.7-0.4,3.7-1.3c1-0.8,1.5-1.9,1.5-3.3v-1.3h-4.6
	c-1.3,0-2.3,0.3-3.1,0.8c-0.7,0.5-1.1,1.2-1.1,2.2c0,0.9,0.3,1.7,1,2.2C212.6,198.4,213.5,198.7,214.5,198.7z M243.5,192.9h-13.2
	v0.1c0,1.6,0.5,3,1.5,4.1s2.4,1.6,4,1.6c1.2,0,2.1-0.2,2.8-0.7c0.8-0.5,1.2-1,1.4-1.6h3.1c-0.3,1.3-1.1,2.4-2.3,3.5s-3,1.6-5.1,1.6
	c-2.6,0-4.8-0.9-6.4-2.6c-1.6-1.7-2.4-4-2.4-6.9c0-2.9,0.8-5.2,2.4-6.9c1.6-1.7,3.6-2.6,6.2-2.6c2.4,0,4.3,0.8,5.8,2.4
	c1.4,1.6,2.2,3.7,2.2,6.4V192.9z M235.5,185.2c-1.5,0-2.7,0.5-3.6,1.4c-0.9,0.9-1.4,2.1-1.5,3.6h10c-0.1-1.6-0.5-2.8-1.4-3.7
	C238.1,185.7,237,185.2,235.5,185.2z M247.8,182.9h3.8l6.6,14.5l6.6-14.5h3.7V201h-3v-13.2l-6,13.2h-2.6l-6-13.2V201h-3V182.9z
	 M289.3,198.6c1.4,0,2.4-0.3,3.2-1c0.7-0.7,1.2-1.5,1.5-2.4h3.1c-0.2,1.7-1,3.2-2.4,4.4c-1.4,1.2-3.2,1.8-5.3,1.8
	c-2.6,0-4.6-0.9-6.2-2.6c-1.6-1.8-2.3-4.1-2.3-6.8c0-2.8,0.8-5,2.3-6.8c1.6-1.8,3.7-2.7,6.2-2.7c2.2,0,4,0.6,5.4,1.9
	s2.1,2.7,2.4,4.3H294c-0.3-0.9-0.8-1.7-1.6-2.4s-1.8-1-3.1-1c-1.6,0-2.9,0.6-3.9,1.8c-1,1.2-1.5,2.8-1.5,4.8c0,2,0.5,3.6,1.5,4.8
	C286.4,198,287.7,198.6,289.3,198.6z M307,201.1v-2.8h0.5c1.1,0,1.9-0.3,2.3-0.9c0.5-0.6,0.7-1.7,0.9-3.3l0.9-11.1h12.5V201H321
	v-15.4h-6.7l-0.7,8.6c-0.2,2.4-0.7,4.2-1.7,5.3c-0.9,1.1-2.3,1.6-4.1,1.6H307z M332.6,201h-3.1v-18.1h3.1v7.3h3.5
	c0.3-2.3,1.3-4.2,2.8-5.6c1.5-1.4,3.4-2.1,5.7-2.1c2.6,0,4.7,0.9,6.2,2.7c1.6,1.8,2.3,4,2.3,6.8c0,2.8-0.8,5.1-2.3,6.8
	c-1.6,1.8-3.6,2.6-6.2,2.6c-2.4,0-4.3-0.8-5.9-2.3c-1.6-1.6-2.4-3.6-2.6-6.1h-3.4V201z M340.6,196.8c1,1.2,2.3,1.8,4,1.8
	c1.7,0,3-0.6,3.9-1.8c1-1.2,1.5-2.8,1.5-4.8c0-2-0.5-3.6-1.5-4.8c-1-1.2-2.3-1.8-3.9-1.8c-1.7,0-3,0.6-4,1.8c-1,1.2-1.4,2.8-1.4,4.8
	C339.1,193.9,339.6,195.5,340.6,196.8z M366,182.9c2.4,0,4.4,0.8,6,2.4s2.3,3.9,2.3,6.8c0,2.7-0.8,4.9-2.4,6.7
	c-1.6,1.8-3.6,2.7-6.2,2.7c-2.8,0-5-1-6.7-2.9c-1.6-1.9-2.4-4.7-2.4-8.1c0-4.5,0.7-7.9,2-10.1c1.4-2.2,3.6-3.6,6.7-4.2l7.3-1.5v3
	l-6.6,1.2c-2,0.4-3.5,1.1-4.5,2.3s-1.5,2.8-1.7,4.9C361.1,183.9,363.2,182.9,366,182.9z M365.6,198.6c1.7,0,3-0.6,4-1.8
	c1-1.2,1.5-2.8,1.5-4.7c0-1.9-0.5-3.4-1.5-4.6c-1-1.2-2.3-1.8-4-1.8s-3,0.6-4.1,1.7c-1.1,1.1-1.6,2.6-1.6,4.6c0,2,0.5,3.7,1.5,4.9
	C362.5,198,363.9,198.6,365.6,198.6z M380,185.1c1.6-1.8,3.7-2.7,6.3-2.7s4.7,0.9,6.3,2.7c1.6,1.8,2.4,4,2.4,6.8
	c0,2.8-0.8,5.1-2.4,6.8c-1.6,1.8-3.7,2.6-6.3,2.6s-4.7-0.9-6.3-2.6c-1.6-1.8-2.4-4.1-2.4-6.8C377.6,189.1,378.4,186.9,380,185.1z
	 M382.2,196.8c1,1.2,2.4,1.8,4.1,1.8s3-0.6,4-1.8c1-1.2,1.5-2.8,1.5-4.8c0-2-0.5-3.6-1.5-4.8c-1-1.2-2.3-1.8-4-1.8s-3.1,0.6-4.1,1.8
	c-1,1.2-1.5,2.8-1.5,4.8C380.8,193.9,381.2,195.5,382.2,196.8z M399.3,201v-18.1h7.7c1.8,0,3.3,0.4,4.2,1.3c1,0.9,1.5,2,1.5,3.3
	c0,1-0.2,1.8-0.7,2.5c-0.5,0.7-1,1.1-1.7,1.4c0.9,0.2,1.6,0.7,2.2,1.5c0.6,0.8,0.9,1.7,0.9,2.9c0,1.5-0.5,2.7-1.6,3.7
	c-1.1,1-2.5,1.4-4.4,1.4H399.3z M407.1,193h-4.7v5.3h4.7c2.2,0,3.3-0.9,3.3-2.7C410.4,193.9,409.3,193,407.1,193z M406.8,185.5h-4.4
	v4.9h4.4c0.9,0,1.7-0.2,2.2-0.6c0.5-0.5,0.8-1.1,0.8-1.8C409.7,186.3,408.7,185.5,406.8,185.5z M420.9,182.9v5.9h4.1
	c1.9,0,3.4,0.6,4.6,1.7c1.2,1.1,1.8,2.6,1.8,4.4c0,1.8-0.6,3.3-1.8,4.5c-1.2,1.2-2.7,1.7-4.6,1.7h-7.1v-18.1H420.9z M424.6,191.5
	h-3.7v6.8h3.7c1.2,0,2.1-0.3,2.7-1c0.6-0.6,1-1.5,1-2.5s-0.3-1.8-1-2.4C426.7,191.8,425.8,191.5,424.6,191.5z M438.6,201h-3.1v-18.1
	h3.1v7.3h3.5c0.3-2.3,1.3-4.2,2.8-5.6c1.5-1.4,3.4-2.1,5.7-2.1c2.6,0,4.7,0.9,6.2,2.7c1.6,1.8,2.3,4,2.3,6.8c0,2.8-0.8,5.1-2.3,6.8
	c-1.6,1.8-3.6,2.6-6.2,2.6c-2.4,0-4.3-0.8-5.9-2.3c-1.6-1.6-2.4-3.6-2.6-6.1h-3.4V201z M446.6,196.8c1,1.2,2.3,1.8,4,1.8
	c1.7,0,3-0.6,3.9-1.8c1-1.2,1.5-2.8,1.5-4.8c0-2-0.5-3.6-1.5-4.8c-1-1.2-2.3-1.8-3.9-1.8c-1.7,0-3,0.6-4,1.8c-1,1.2-1.4,2.8-1.4,4.8
	C445.1,193.9,445.6,195.5,446.6,196.8z M489.3,198.2v7.4h-3V201h-14.1v4.6h-3v-7.4h1.5c1.2-0.7,1.9-2.7,2.2-6.2l0.7-9.1h13v15.3
	H489.3z M475.9,192c-0.1,1.1-0.2,1.9-0.3,2.5c-0.1,0.6-0.2,1.2-0.5,2c-0.2,0.7-0.5,1.3-0.9,1.7h9.3v-12.6h-7.2L475.9,192z
	 M491.3,201.1v-2.8h0.5c1.1,0,1.9-0.3,2.3-0.9c0.5-0.6,0.7-1.7,0.9-3.3l0.9-11.1h12.5V201h-3.1v-15.4h-6.7l-0.7,8.6
	c-0.2,2.4-0.7,4.2-1.7,5.3c-0.9,1.1-2.3,1.6-4.1,1.6H491.3z M526.6,201h-3.1v-6.2h-3.2l-4.7,6.2H512l5-6.5c-1.2-0.4-2.2-1.2-2.9-2.2
	c-0.7-1-1-2.2-1-3.5c0-1.7,0.6-3.2,1.7-4.3c1.2-1.1,2.7-1.7,4.7-1.7h7.2V201z M516.1,188.8c0,1,0.3,1.8,1,2.4
	c0.7,0.6,1.6,0.9,2.7,0.9h3.7v-6.6h-3.7c-1.1,0-2,0.3-2.7,0.9C516.4,187.1,516.1,187.9,516.1,188.8z M540.4,201v-25.3h9.4
	c2.4,0,4.2,0.6,5.6,1.9c1.3,1.2,2,2.8,2,4.7c0,1.4-0.3,2.6-1,3.6c-0.6,0.9-1.4,1.6-2.3,1.9c1.1,0.3,2.1,1,3,2c0.9,1,1.3,2.4,1.3,4.1
	c0,2.1-0.8,3.9-2.3,5.2c-1.5,1.3-3.5,2-6.1,2H540.4z M550,189.4h-6.4v8.7h6.2c1.6,0,2.9-0.4,3.9-1.2c1-0.8,1.4-1.8,1.4-3.2
	c0-1.3-0.5-2.4-1.4-3.2C552.8,189.8,551.5,189.4,550,189.4z M549.4,178.5h-5.8v8h6c1.5,0,2.6-0.4,3.3-1.1c0.8-0.7,1.2-1.7,1.2-2.9
	c0-1.2-0.4-2.2-1.3-2.9C552,178.9,550.9,178.5,549.4,178.5z M573.6,189c0-1.2-0.4-2.2-1.2-2.8c-0.7-0.6-1.7-1-3-1
	c-2.2,0-3.6,0.8-4.2,2.4h-3c0.3-1.5,1.1-2.7,2.3-3.7c1.3-1,2.9-1.5,4.9-1.5c2.1,0,3.9,0.6,5.1,1.8c1.3,1.2,1.9,2.7,1.9,4.8v12h-2.9
	v-2.2c-1.4,1.7-3.3,2.6-5.8,2.6c-1.8,0-3.3-0.5-4.5-1.5c-1.2-1-1.8-2.4-1.8-4.1c0-1.8,0.6-3.1,1.9-4.1c1.3-1,3-1.5,5.2-1.5h4.8V189z
	 M568.3,198.7c1.5,0,2.7-0.4,3.7-1.3c1-0.8,1.5-1.9,1.5-3.3v-1.3H569c-1.3,0-2.3,0.3-3.1,0.8c-0.7,0.5-1.1,1.2-1.1,2.2
	c0,0.9,0.3,1.7,1,2.2S567.3,198.7,568.3,198.7z M589.4,198.6c1.4,0,2.4-0.3,3.2-1c0.7-0.7,1.2-1.5,1.5-2.4h3.1
	c-0.2,1.7-1,3.2-2.4,4.4c-1.4,1.2-3.2,1.8-5.3,1.8c-2.6,0-4.6-0.9-6.2-2.6c-1.6-1.8-2.3-4.1-2.3-6.8c0-2.8,0.8-5,2.3-6.8
	c1.6-1.8,3.7-2.7,6.2-2.7c2.2,0,4,0.6,5.4,1.9c1.3,1.2,2.1,2.7,2.4,4.3h-3.1c-0.3-0.9-0.8-1.7-1.6-2.4c-0.8-0.7-1.8-1-3.1-1
	c-1.6,0-2.9,0.6-3.9,1.8s-1.5,2.8-1.5,4.8c0,2,0.5,3.6,1.5,4.8C586.5,198,587.8,198.6,589.4,198.6z M602.6,193.4l-0.2-17.8h3.3
	l-0.2,17.8H602.6z M602.5,197.7c0.4-0.4,1-0.6,1.6-0.6c0.6,0,1.2,0.2,1.6,0.6c0.4,0.4,0.6,0.9,0.6,1.5c0,0.6-0.2,1.2-0.6,1.6
	c-0.4,0.4-1,0.6-1.6,0.6c-0.6,0-1.2-0.2-1.6-0.6c-0.4-0.4-0.6-1-0.6-1.6C601.9,198.6,602.1,198.1,602.5,197.7z"/>
</svg>
