<svg 
  width="28"
  height="28"
  fill="none"
  xmlns="http://www.w3.org/2000/svg"
>
  <path
    d="M12.83 4.146c0-.589-.505-1.055-1.086-.96l-.428.077c-.567.112-1.121.257-1.655.435l-.161.056v-.001l-.364.133-.342.136-.435.189-.348.166-.456.238-.38.216-.298.184-.203.131-.327.225-.406.302-.259.208-.18.152-.234.208-.224.21-.241.24-.25.264-.225.256c-.374.438-.708.903-.998 1.39l-.077.133c-.074.128-.145.259-.213.39l-.125.256-.134.294-.077.183-.127.329-.113.332-.137.472-.064.262-.072.346c-.026.14-.049.28-.068.422l-.02.157-.039.397a8.934 8.934 0 0 0-.024.658c0 1.865.585 3.655 1.67 5.217-.105.901-.628 2.418-1.577 4.48a1.457 1.457 0 0 0 .746 1.94c.211.095.442.139.674.13 2.776-.107 4.918-.81 6.379-2.146 1.298.401 2.677.61 4.088.61.33 0 .658-.012.982-.034l.346-.028.432-.048.476-.068.478-.086.368-.078.346-.083.346-.093.31-.092.325-.105.354-.125.42-.164.516-.225.428-.207.27-.142c.197-.106.39-.217.58-.333l.138-.086.259-.168.283-.194.197-.143.244-.186.222-.178.355-.305c.166-.149.327-.302.483-.46.49-.495.928-1.034 1.302-1.607.423-.645-.086-1.435-.857-1.435-.381 0-.729.205-.946.518-.335.485-.73.942-1.177 1.364a9.279 9.279 0 0 1-.953.786l-.103.073-.26.176-.274.174-.283.165-.305.166-.262.132-.299.139-.327.14-.303.118-.317.113-.321.103-.333.096-.334.085-.421.093c-.246.049-.496.09-.75.124l-.237.03-.363.035c-.339.028-.684.043-1.035.043-1.215 0-2.394-.18-3.497-.521a2 2 0 0 0-1.941.435c-.87.795-2.228 1.377-4.264 1.568.75-1.715 1.253-3.187 1.378-4.265a2 2 0 0 0-.344-1.372c-.864-1.245-1.312-2.64-1.312-4.076 0-.332.025-.662.074-.989l.061-.346a6.997 6.997 0 0 1 .343-1.16l.042-.106.103-.24.114-.242.127-.245.13-.232.102-.17.115-.18.208-.302.132-.177.177-.224.253-.296.199-.214.145-.148c.162-.161.33-.317.507-.468l.222-.184.253-.196.187-.137.228-.158.25-.162.13-.08.232-.137.286-.157.137-.071.275-.136.305-.138.285-.12.386-.146.545-.179c.43-.128.877-.233 1.334-.312.51-.088.903-.517.903-1.034Z"
    fill="#3F8AE0"
  />
  <path
    d="m20 11.59 2.845 1.737a.102.102 0 0 0 .153-.111l-.773-3.243 2.531-2.169a.102.102 0 0 0-.058-.18l-3.323-.266-1.28-3.079a.102.102 0 0 0-.19 0l-1.28 3.079-3.323.266a.102.102 0 0 0-.059.18l2.532 2.169-.773 3.242a.103.103 0 0 0 .153.112L20 11.589Zm0 1.17-2.324 1.42a1.102 1.102 0 0 1-1.647-1.197l.632-2.648-2.068-1.772a1.103 1.103 0 0 1 .63-1.936l2.713-.217 1.046-2.515a1.103 1.103 0 0 1 2.036 0l1.046 2.515 2.714.217a1.102 1.102 0 0 1 .629 1.936l-2.068 1.772.632 2.648a1.102 1.102 0 0 1-1.647 1.197L20 12.76Z"
    fill="#3F8AE0"
    stroke="#3F8AE0"
    stroke-width=".6"
  />
</svg>