<svg width="633" height="218" viewBox="0 0 633 218" fill="none" xmlns="http://www.w3.org/2000/svg">
<g clip-path="url(#clip0_301_11)">
<path d="M141.904 36.2868C138.17 35.8862 105.149 32.4815 96.1113 35.9273C91.3459 37.7383 87.4342 41.2733 85.1514 45.8319C82.8686 50.3906 82.3816 55.6403 83.7867 60.5414C83.9045 60.9469 84.0486 61.3834 84.2232 61.8662L85.0242 64.0588L92.7633 61.1572L91.9875 59.0109C90.9164 56.0387 91.0541 52.7647 92.3719 49.8932C93.6896 47.0217 96.0814 44.7821 99.0334 43.656C103.311 42.0281 118.922 42.6289 132.68 43.7382C127.884 48.7657 119.96 56.8437 113.705 62.0203C111.523 63.815 109.556 65.8553 107.841 68.1006L105.586 71.0637L105.335 71.4229C102.813 75.0176 101.647 78.4277 99.3469 85.5352L98.9104 86.8752C91.6025 109.394 76.9717 121.796 55.4136 123.732L62.891 102.944L55.1569 100.171L43.6588 132.251L49.5182 132.226C63.9334 132.175 76.1707 128.369 85.8867 120.928C95.2846 113.739 102.32 103.124 106.752 89.4223L107.188 88.0769C110.157 78.9152 110.691 77.2928 115.344 72.1934C117.267 70.1086 119.305 68.1334 121.45 66.2772C131.155 57.8194 142.376 45.5459 144.528 43.1682L149.992 37.1392L141.904 36.2868Z" fill="#0073E6"/>
<path d="M108.657 52.5813C108.875 51.9045 108.887 51.1784 108.692 50.4948C108.497 49.8111 108.104 49.2007 107.562 48.7406C107.02 48.2804 106.354 47.9913 105.647 47.9098C104.941 47.8283 104.227 47.9579 103.594 48.2825C102.962 48.607 102.439 49.1118 102.094 49.733C101.748 50.3542 101.595 51.0639 101.652 51.7724C101.71 52.481 101.976 53.1566 102.418 53.7137C102.86 54.2708 103.456 54.6845 104.133 54.9025C104.582 55.0472 105.056 55.102 105.527 55.0637C105.997 55.0254 106.455 54.8948 106.876 54.6792C107.296 54.4636 107.67 54.1674 107.975 53.8075C108.281 53.4475 108.513 53.0309 108.657 52.5813Z" fill="#0073E6"/>
<path d="M70.306 81.7863C77.1158 60.6234 65.0478 37.7452 43.4072 30.7868L4.16272 18.1641L1.88262 25.256C0.162547 30.6617 -0.387735 36.3715 0.268349 42.0062C0.924434 47.6409 2.77185 53.0716 5.68791 57.9374C10.8995 66.6568 19.118 73.1719 28.7971 76.2551L68.0414 88.8727L70.306 81.7863ZM62.7111 78.5355L31.298 68.434C23.5288 65.9572 16.9312 60.7289 12.7439 53.7316C10.4928 49.9782 9.04084 45.8004 8.47881 41.4599C7.91684 37.1194 8.25691 32.7097 9.47783 28.5067L40.8908 38.6079C57.9659 44.0977 67.6207 61.8914 62.7111 78.5355Z" fill="#0073E6"/>
</g>
<path d="M142.88 127.712H150.624C151.904 131.936 155.253 134.048 160.672 134.048C163.275 134.048 165.365 133.451 166.944 132.256C168.523 131.019 169.312 129.355 169.312 127.264C169.312 123.979 167.221 121.995 163.04 121.312L155.232 120.032C151.435 119.477 148.512 118.176 146.464 116.128C144.459 114.037 143.456 111.349 143.456 108.064C143.456 103.925 144.992 100.576 148.064 98.016C151.179 95.456 155.019 94.176 159.584 94.176C164.064 94.176 167.819 95.2853 170.848 97.504C173.92 99.68 175.776 102.795 176.416 106.848H168.736C167.584 102.88 164.533 100.896 159.584 100.896C157.237 100.896 155.253 101.493 153.632 102.688C152.011 103.84 151.2 105.44 151.2 107.488C151.2 110.475 153.163 112.288 157.088 112.928L164.896 114.144C173.003 115.509 177.056 119.691 177.056 126.688C177.056 131.04 175.541 134.475 172.512 136.992C169.525 139.509 165.536 140.768 160.544 140.768C155.808 140.768 151.84 139.637 148.64 137.376C145.44 135.072 143.52 131.851 142.88 127.712ZM191.65 140H184.354V93.472H191.65V120.928L204.194 107.36H212.833L198.753 122.656L213.026 140H204.194L191.65 124.768V140ZM239.352 107.36H247.224L229.624 152.224H221.816L226.872 139.424L214.328 107.36H222.2L230.776 130.72L239.352 107.36ZM285.251 109.344C285.251 112.245 284.483 114.891 282.947 117.28C281.411 119.669 279.278 121.44 276.547 122.592L287.683 140H278.979L268.739 123.872H260.675V140H253.059V94.944H269.827C274.691 94.944 278.467 96.3307 281.155 99.104C283.886 101.835 285.251 105.248 285.251 109.344ZM269.059 101.664H260.675V117.216H269.059C271.747 117.216 273.816 116.469 275.267 114.976C276.76 113.483 277.507 111.627 277.507 109.408C277.507 107.104 276.782 105.248 275.331 103.84C273.923 102.389 271.832 101.664 269.059 101.664ZM320.899 125.792H297.923V125.92C297.923 128.437 298.734 130.528 300.355 132.192C301.976 133.856 304.088 134.688 306.691 134.688C308.483 134.688 309.955 134.325 311.107 133.6C312.302 132.832 313.048 132.021 313.347 131.168H320.515C320.003 133.643 318.552 135.861 316.163 137.824C313.816 139.787 310.616 140.768 306.563 140.768C301.699 140.768 297.795 139.253 294.851 136.224C291.907 133.152 290.435 128.992 290.435 123.744C290.435 118.496 291.886 114.336 294.787 111.264C297.688 108.149 301.464 106.592 306.115 106.592C310.595 106.592 314.179 108.064 316.867 111.008C319.555 113.952 320.899 117.877 320.899 122.784V125.792ZM306.051 112.672C303.747 112.672 301.87 113.355 300.419 114.72C299.011 116.085 298.2 117.941 297.987 120.288H313.603C313.518 117.899 312.792 116.043 311.427 114.72C310.104 113.355 308.312 112.672 306.051 112.672ZM350.574 107.36H357.614V137.824C357.614 142.603 356.206 146.379 353.39 149.152C350.616 151.968 346.798 153.376 341.934 153.376C337.582 153.376 334.147 152.352 331.63 150.304C329.112 148.256 327.704 145.824 327.406 143.008H334.574C335.598 145.824 338.072 147.232 341.998 147.232C344.643 147.232 346.691 146.4 348.142 144.736C349.592 143.072 350.318 140.768 350.318 137.824V135.136C348.227 138.251 344.92 139.808 340.398 139.808C336.387 139.808 332.974 138.336 330.158 135.392C327.384 132.448 325.998 128.395 325.998 123.232C325.998 118.112 327.406 114.059 330.222 111.072C333.08 108.085 336.558 106.592 340.654 106.592C343.043 106.592 345.091 107.061 346.798 108C348.504 108.896 349.763 110.048 350.574 111.456V107.36ZM341.87 133.472C344.472 133.472 346.563 132.533 348.142 130.656C349.72 128.779 350.51 126.347 350.51 123.36V123.104C350.51 120.117 349.72 117.685 348.142 115.808C346.563 113.931 344.472 112.992 341.87 112.992C339.352 112.992 337.304 113.952 335.726 115.872C334.19 117.792 333.422 120.245 333.422 123.232C333.422 126.219 334.19 128.672 335.726 130.592C337.304 132.512 339.352 133.472 341.87 133.472ZM373.712 93.472V140H366.416V93.472H373.712ZM389.9 107.36V140H382.604V107.36H389.9ZM386.252 93.216C387.532 93.216 388.598 93.6427 389.452 94.496C390.348 95.3493 390.796 96.3947 390.796 97.632C390.796 98.912 390.348 99.9787 389.452 100.832C388.598 101.685 387.532 102.112 386.252 102.112C385.014 102.112 383.948 101.685 383.052 100.832C382.198 99.9787 381.772 98.912 381.772 97.632C381.772 96.3947 382.198 95.3493 383.052 94.496C383.948 93.6427 385.014 93.216 386.252 93.216ZM404.103 130.592C404.786 133.408 407.111 134.816 411.079 134.816C412.956 134.816 414.428 134.453 415.495 133.728C416.562 133.003 417.095 131.979 417.095 130.656C417.095 128.608 415.666 127.413 412.807 127.072L407.047 126.304C400.69 125.493 397.511 122.443 397.511 117.152C397.511 114.08 398.727 111.563 401.159 109.6C403.634 107.637 406.727 106.656 410.439 106.656C414.066 106.656 417.052 107.509 419.399 109.216C421.788 110.923 423.218 113.312 423.687 116.384H416.583C415.772 113.824 413.682 112.544 410.311 112.544C408.604 112.544 407.239 112.928 406.215 113.696C405.191 114.464 404.679 115.424 404.679 116.576C404.679 118.539 406.044 119.691 408.775 120.032L414.599 120.736C417.543 121.12 419.89 122.08 421.639 123.616C423.431 125.152 424.327 127.349 424.327 130.208C424.327 133.536 423.09 136.139 420.615 138.016C418.14 139.851 414.983 140.768 411.143 140.768C407.388 140.768 404.167 139.936 401.479 138.272C398.791 136.565 397.276 134.005 396.935 130.592H404.103ZM443.63 127.712H451.374C452.654 131.936 456.003 134.048 461.422 134.048C464.025 134.048 466.115 133.451 467.694 132.256C469.273 131.019 470.062 129.355 470.062 127.264C470.062 123.979 467.971 121.995 463.79 121.312L455.982 120.032C452.185 119.477 449.262 118.176 447.214 116.128C445.209 114.037 444.206 111.349 444.206 108.064C444.206 103.925 445.742 100.576 448.814 98.016C451.929 95.456 455.769 94.176 460.334 94.176C464.814 94.176 468.569 95.2853 471.598 97.504C474.67 99.68 476.526 102.795 477.166 106.848H469.486C468.334 102.88 465.283 100.896 460.334 100.896C457.987 100.896 456.003 101.493 454.382 102.688C452.761 103.84 451.95 105.44 451.95 107.488C451.95 110.475 453.913 112.288 457.838 112.928L465.646 114.144C473.753 115.509 477.806 119.691 477.806 126.688C477.806 131.04 476.291 134.475 473.262 136.992C470.275 139.509 466.286 140.768 461.294 140.768C456.558 140.768 452.59 139.637 449.39 137.376C446.19 135.072 444.27 131.851 443.63 127.712ZM494.256 128.928C494.256 130.763 494.661 132.021 495.472 132.704C496.282 133.344 497.434 133.664 498.928 133.664H500.976V140.064H497.712C494.042 140.064 491.333 139.211 489.584 137.504C487.834 135.797 486.96 133.088 486.96 129.376V113.568H481.712V107.36H486.96V98.848H494.256V107.36H500.976V113.568H494.256V128.928ZM536.145 140H529.105V136.224C528.209 137.504 526.907 138.592 525.201 139.488C523.537 140.341 521.617 140.768 519.441 140.768C516.027 140.768 513.169 139.723 510.865 137.632C508.603 135.499 507.473 132.299 507.473 128.032V107.36H514.769V126.688C514.769 129.163 515.366 131.04 516.561 132.32C517.755 133.557 519.377 134.176 521.425 134.176C523.473 134.176 525.222 133.515 526.673 132.192C528.123 130.869 528.849 128.907 528.849 126.304V107.36H536.145V140ZM557.587 140.768C553.576 140.768 550.163 139.253 547.347 136.224C544.531 133.195 543.123 129.013 543.123 123.68C543.123 118.347 544.531 114.165 547.347 111.136C550.205 108.107 553.683 106.592 557.779 106.592C562.216 106.592 565.437 108.064 567.443 111.008V93.472H574.739V140H567.699V135.776C565.608 139.104 562.237 140.768 557.587 140.768ZM558.995 113.056C556.435 113.056 554.387 114.037 552.851 116C551.315 117.92 550.547 120.48 550.547 123.68C550.547 126.88 551.315 129.461 552.851 131.424C554.387 133.344 556.435 134.304 558.995 134.304C561.597 134.304 563.688 133.365 565.267 131.488C566.845 129.568 567.635 127.008 567.635 123.808V123.552C567.635 120.352 566.845 117.813 565.267 115.936C563.688 114.016 561.597 113.056 558.995 113.056ZM590.837 107.36V140H583.541V107.36H590.837ZM587.189 93.216C588.469 93.216 589.536 93.6427 590.389 94.496C591.285 95.3493 591.733 96.3947 591.733 97.632C591.733 98.912 591.285 99.9787 590.389 100.832C589.536 101.685 588.469 102.112 587.189 102.112C585.952 102.112 584.885 101.685 583.989 100.832C583.136 99.9787 582.709 98.912 582.709 97.632C582.709 96.3947 583.136 95.3493 583.989 94.496C584.885 93.6427 585.952 93.216 587.189 93.216ZM602.289 111.328C605.275 108.171 609.158 106.592 613.937 106.592C618.715 106.592 622.577 108.171 625.521 111.328C628.507 114.485 630.001 118.603 630.001 123.68C630.001 128.757 628.507 132.875 625.521 136.032C622.577 139.189 618.715 140.768 613.937 140.768C609.158 140.768 605.275 139.189 602.289 136.032C599.345 132.875 597.873 128.757 597.873 123.68C597.873 118.603 599.345 114.485 602.289 111.328ZM607.601 131.36C609.179 133.323 611.291 134.304 613.937 134.304C616.582 134.304 618.673 133.323 620.209 131.36C621.787 129.397 622.577 126.837 622.577 123.68C622.577 120.523 621.787 117.963 620.209 116C618.673 114.037 616.582 113.056 613.937 113.056C611.291 113.056 609.179 114.037 607.601 116C606.065 117.963 605.297 120.523 605.297 123.68C605.297 126.837 606.065 129.397 607.601 131.36Z" fill="#363840"/>
<path d="M165.308 198.012V205.824H162.212V201H143.456V205.824H140.36V198.012H142.304C143.24 197.364 143.924 196.32 144.356 194.88C144.812 193.44 145.136 191.364 145.328 188.652L146.192 175.656H162.212V198.012H165.308ZM148.424 188.652C148.232 191.412 147.968 193.476 147.632 194.844C147.32 196.212 146.804 197.268 146.084 198.012H159.008V178.608H149.072L148.424 188.652ZM184.474 192.864H171.262V192.936C171.262 194.568 171.778 195.924 172.81 197.004C173.842 198.084 175.186 198.624 176.842 198.624C177.994 198.624 178.942 198.384 179.686 197.904C180.454 197.4 180.934 196.872 181.126 196.32H184.258C183.97 197.592 183.19 198.756 181.918 199.812C180.646 200.868 178.942 201.396 176.806 201.396C174.166 201.396 172.042 200.544 170.434 198.84C168.826 197.136 168.022 194.832 168.022 191.928C168.022 189.024 168.814 186.72 170.398 185.016C171.982 183.312 174.034 182.46 176.554 182.46C178.978 182.46 180.898 183.264 182.314 184.872C183.754 186.456 184.474 188.592 184.474 191.28V192.864ZM176.482 185.232C174.994 185.232 173.782 185.688 172.846 186.6C171.934 187.512 171.418 188.724 171.298 190.236H181.342C181.27 188.676 180.802 187.452 179.938 186.564C179.098 185.676 177.946 185.232 176.482 185.232ZM186.454 201.072V198.264H186.958C188.062 198.264 188.83 197.952 189.262 197.328C189.718 196.704 190.006 195.588 190.126 193.98L191.062 182.856H203.59V201H200.494V185.628H193.834L193.114 194.196C192.922 196.644 192.37 198.408 191.458 199.488C190.57 200.544 189.19 201.072 187.318 201.072H186.454ZM219.841 188.976C219.841 187.752 219.457 186.816 218.689 186.168C217.945 185.52 216.961 185.196 215.737 185.196C213.553 185.196 212.161 186 211.561 187.608H208.573C208.885 186.12 209.665 184.896 210.913 183.936C212.185 182.952 213.817 182.46 215.809 182.46C217.945 182.46 219.661 183.048 220.957 184.224C222.253 185.376 222.901 186.96 222.901 188.976V201H219.985V198.84C218.617 200.544 216.673 201.396 214.153 201.396C212.353 201.396 210.853 200.892 209.653 199.884C208.477 198.852 207.889 197.496 207.889 195.816C207.889 194.064 208.525 192.696 209.797 191.712C211.069 190.704 212.809 190.2 215.017 190.2H219.841V188.976ZM214.549 198.696C216.037 198.696 217.285 198.276 218.293 197.436C219.325 196.596 219.841 195.504 219.841 194.16V192.828H215.197C213.925 192.828 212.905 193.08 212.137 193.584C211.393 194.088 211.021 194.82 211.021 195.78C211.021 196.716 211.345 197.436 211.993 197.94C212.641 198.444 213.493 198.696 214.549 198.696ZM243.502 192.864H230.29V192.936C230.29 194.568 230.806 195.924 231.838 197.004C232.87 198.084 234.214 198.624 235.87 198.624C237.022 198.624 237.97 198.384 238.714 197.904C239.482 197.4 239.962 196.872 240.154 196.32H243.286C242.998 197.592 242.218 198.756 240.946 199.812C239.674 200.868 237.97 201.396 235.834 201.396C233.194 201.396 231.07 200.544 229.462 198.84C227.854 197.136 227.05 194.832 227.05 191.928C227.05 189.024 227.842 186.72 229.426 185.016C231.01 183.312 233.062 182.46 235.582 182.46C238.006 182.46 239.926 183.264 241.342 184.872C242.782 186.456 243.502 188.592 243.502 191.28V192.864ZM235.51 185.232C234.022 185.232 232.81 185.688 231.874 186.6C230.962 187.512 230.446 188.724 230.326 190.236H240.37C240.298 188.676 239.83 187.452 238.966 186.564C238.126 185.676 236.974 185.232 235.51 185.232ZM247.817 182.856H251.597L258.185 197.328L264.773 182.856H268.517V201H265.493V187.824L259.481 201H256.889L250.841 187.824V201H247.817V182.856ZM289.337 198.588C290.705 198.588 291.761 198.252 292.505 197.58C293.249 196.884 293.741 196.068 293.981 195.132H297.077C296.861 196.836 296.045 198.312 294.629 199.56C293.237 200.784 291.461 201.396 289.301 201.396C286.733 201.396 284.657 200.52 283.073 198.768C281.513 196.992 280.733 194.712 280.733 191.928C280.733 189.168 281.513 186.9 283.073 185.124C284.657 183.348 286.733 182.46 289.301 182.46C291.533 182.46 293.321 183.084 294.665 184.332C296.009 185.58 296.813 187.02 297.077 188.652H293.981C293.693 187.74 293.165 186.948 292.397 186.276C291.629 185.604 290.597 185.268 289.301 185.268C287.669 185.268 286.361 185.88 285.377 187.104C284.393 188.328 283.901 189.936 283.901 191.928C283.901 193.92 284.393 195.528 285.377 196.752C286.385 197.976 287.705 198.588 289.337 198.588ZM306.97 201.072V198.264H307.474C308.578 198.264 309.346 197.952 309.778 197.328C310.234 196.704 310.522 195.588 310.642 193.98L311.578 182.856H324.106V201H321.01V185.628H314.35L313.63 194.196C313.438 196.644 312.886 198.408 311.974 199.488C311.086 200.544 309.706 201.072 307.834 201.072H306.97ZM332.616 201H329.52V182.856H332.616V190.164H336.072C336.408 187.86 337.332 186 338.844 184.584C340.38 183.168 342.276 182.46 344.532 182.46C347.124 182.46 349.2 183.348 350.76 185.124C352.32 186.876 353.1 189.144 353.1 191.928C353.1 194.712 352.32 196.992 350.76 198.768C349.2 200.52 347.124 201.396 344.532 201.396C342.18 201.396 340.212 200.616 338.628 199.056C337.068 197.496 336.192 195.468 336 192.972H332.616V201ZM340.572 196.752C341.556 197.976 342.876 198.588 344.532 198.588C346.188 198.588 347.496 197.976 348.456 196.752C349.44 195.528 349.932 193.92 349.932 191.928C349.932 189.936 349.44 188.328 348.456 187.104C347.496 185.88 346.188 185.268 344.532 185.268C342.876 185.268 341.556 185.88 340.572 187.104C339.612 188.328 339.132 189.936 339.132 191.928C339.132 193.92 339.612 195.528 340.572 196.752ZM366.038 182.856C368.462 182.856 370.454 183.672 372.014 185.304C373.574 186.936 374.354 189.192 374.354 192.072C374.354 194.736 373.562 196.956 371.978 198.732C370.418 200.508 368.342 201.396 365.75 201.396C362.942 201.396 360.71 200.436 359.054 198.516C357.422 196.572 356.606 193.86 356.606 190.38C356.606 185.868 357.278 182.508 358.622 180.3C359.99 178.092 362.21 176.676 365.282 176.052L372.554 174.576V177.564L365.93 178.788C363.914 179.148 362.426 179.904 361.466 181.056C360.506 182.208 359.93 183.828 359.738 185.916C361.13 183.876 363.23 182.856 366.038 182.856ZM365.606 198.588C367.286 198.588 368.63 197.988 369.638 196.788C370.67 195.564 371.186 193.992 371.186 192.072C371.186 190.176 370.67 188.628 369.638 187.428C368.63 186.228 367.298 185.628 365.642 185.628C363.986 185.628 362.606 186.192 361.502 187.32C360.422 188.424 359.882 189.96 359.882 191.928C359.882 193.968 360.398 195.588 361.43 196.788C362.486 197.988 363.878 198.588 365.606 198.588ZM379.965 185.124C381.573 183.348 383.685 182.46 386.301 182.46C388.917 182.46 391.017 183.348 392.601 185.124C394.209 186.876 395.013 189.144 395.013 191.928C395.013 194.712 394.209 196.992 392.601 198.768C391.017 200.52 388.917 201.396 386.301 201.396C383.685 201.396 381.573 200.52 379.965 198.768C378.381 196.992 377.589 194.712 377.589 191.928C377.589 189.144 378.381 186.876 379.965 185.124ZM382.233 196.752C383.241 197.976 384.597 198.588 386.301 198.588C388.005 198.588 389.349 197.976 390.333 196.752C391.341 195.528 391.845 193.92 391.845 191.928C391.845 189.936 391.341 188.328 390.333 187.104C389.349 185.88 388.005 185.268 386.301 185.268C384.597 185.268 383.241 185.88 382.233 187.104C381.249 188.328 380.757 189.936 380.757 191.928C380.757 193.92 381.249 195.528 382.233 196.752ZM399.341 201V182.856H407.045C408.893 182.856 410.297 183.3 411.257 184.188C412.241 185.052 412.733 186.168 412.733 187.536C412.733 188.52 412.505 189.348 412.049 190.02C411.593 190.692 411.029 191.16 410.357 191.424C411.245 191.664 411.989 192.168 412.589 192.936C413.213 193.704 413.525 194.676 413.525 195.852C413.525 197.364 412.985 198.6 411.905 199.56C410.849 200.52 409.373 201 407.477 201H399.341ZM407.117 193.008H402.401V198.336H407.117C409.325 198.336 410.429 197.424 410.429 195.6C410.429 193.872 409.325 193.008 407.117 193.008ZM406.757 185.52H402.401V190.38H406.757C407.693 190.38 408.413 190.164 408.917 189.732C409.421 189.276 409.673 188.664 409.673 187.896C409.673 186.312 408.701 185.52 406.757 185.52ZM420.929 182.856V188.724H424.997C426.893 188.724 428.429 189.3 429.605 190.452C430.781 191.58 431.369 193.032 431.369 194.808C431.369 196.608 430.781 198.096 429.605 199.272C428.429 200.424 426.881 201 424.961 201H417.833V182.856H420.929ZM424.601 191.46H420.929V198.264H424.601C425.753 198.264 426.653 197.94 427.301 197.292C427.949 196.644 428.273 195.816 428.273 194.808C428.273 193.8 427.949 192.996 427.301 192.396C426.653 191.772 425.753 191.46 424.601 191.46ZM438.612 201H435.516V182.856H438.612V190.164H442.068C442.404 187.86 443.328 186 444.84 184.584C446.376 183.168 448.272 182.46 450.528 182.46C453.12 182.46 455.196 183.348 456.756 185.124C458.316 186.876 459.096 189.144 459.096 191.928C459.096 194.712 458.316 196.992 456.756 198.768C455.196 200.52 453.12 201.396 450.528 201.396C448.176 201.396 446.208 200.616 444.624 199.056C443.064 197.496 442.188 195.468 441.996 192.972H438.612V201ZM446.568 196.752C447.552 197.976 448.872 198.588 450.528 198.588C452.184 198.588 453.492 197.976 454.452 196.752C455.436 195.528 455.928 193.92 455.928 191.928C455.928 189.936 455.436 188.328 454.452 187.104C453.492 185.88 452.184 185.268 450.528 185.268C448.872 185.268 447.552 185.88 446.568 187.104C445.608 188.328 445.128 189.936 445.128 191.928C445.128 193.92 445.608 195.528 446.568 196.752ZM489.305 198.192V205.608H486.317V201H472.169V205.608H469.181V198.192H470.693C471.869 197.52 472.601 195.444 472.889 191.964L473.609 182.856H486.641V198.192H489.305ZM475.877 192.036C475.781 193.116 475.697 193.944 475.625 194.52C475.553 195.096 475.397 195.756 475.157 196.5C474.917 197.22 474.617 197.784 474.257 198.192H483.545V185.628H476.381L475.877 192.036ZM491.259 201.072V198.264H491.763C492.867 198.264 493.635 197.952 494.067 197.328C494.523 196.704 494.811 195.588 494.931 193.98L495.867 182.856H508.395V201H505.299V185.628H498.639L497.919 194.196C497.727 196.644 497.175 198.408 496.263 199.488C495.375 200.544 493.995 201.072 492.123 201.072H491.259ZM526.625 201H523.529V194.844H520.289L515.609 201H512.009L516.977 194.484C515.753 194.052 514.781 193.332 514.061 192.324C513.365 191.292 513.017 190.128 513.017 188.832C513.017 187.104 513.581 185.676 514.709 184.548C515.861 183.42 517.433 182.856 519.425 182.856H526.625V201ZM516.113 188.832C516.113 189.816 516.437 190.62 517.085 191.244C517.757 191.844 518.657 192.144 519.785 192.144H523.529V185.556H519.785C518.657 185.556 517.757 185.868 517.085 186.492C516.437 187.092 516.113 187.872 516.113 188.832ZM540.398 201V175.656H549.794C552.17 175.656 554.03 176.28 555.374 177.528C556.718 178.752 557.39 180.312 557.39 182.208C557.39 183.648 557.066 184.848 556.418 185.808C555.77 186.744 554.99 187.392 554.078 187.752C555.182 188.064 556.166 188.736 557.03 189.768C557.918 190.8 558.362 192.156 558.362 193.836C558.362 195.972 557.606 197.7 556.094 199.02C554.582 200.34 552.554 201 550.01 201H540.398ZM549.974 189.372H543.566V198.12H549.794C551.402 198.12 552.686 197.736 553.646 196.968C554.606 196.2 555.086 195.132 555.086 193.764C555.086 192.42 554.618 191.352 553.682 190.56C552.77 189.768 551.534 189.372 549.974 189.372ZM549.398 178.536H543.566V186.528H549.614C551.078 186.528 552.194 186.156 552.962 185.412C553.754 184.668 554.15 183.708 554.15 182.532C554.15 181.284 553.73 180.312 552.89 179.616C552.05 178.896 550.886 178.536 549.398 178.536ZM573.618 188.976C573.618 187.752 573.234 186.816 572.466 186.168C571.722 185.52 570.738 185.196 569.514 185.196C567.33 185.196 565.938 186 565.338 187.608H562.35C562.662 186.12 563.442 184.896 564.69 183.936C565.962 182.952 567.594 182.46 569.586 182.46C571.722 182.46 573.438 183.048 574.734 184.224C576.03 185.376 576.678 186.96 576.678 188.976V201H573.762V198.84C572.394 200.544 570.45 201.396 567.93 201.396C566.13 201.396 564.63 200.892 563.43 199.884C562.254 198.852 561.666 197.496 561.666 195.816C561.666 194.064 562.302 192.696 563.574 191.712C564.846 190.704 566.586 190.2 568.794 190.2H573.618V188.976ZM568.326 198.696C569.814 198.696 571.062 198.276 572.07 197.436C573.102 196.596 573.618 195.504 573.618 194.16V192.828H568.974C567.702 192.828 566.682 193.08 565.914 193.584C565.17 194.088 564.798 194.82 564.798 195.78C564.798 196.716 565.122 197.436 565.77 197.94C566.418 198.444 567.27 198.696 568.326 198.696ZM589.431 198.588C590.799 198.588 591.855 198.252 592.599 197.58C593.343 196.884 593.835 196.068 594.075 195.132H597.171C596.955 196.836 596.139 198.312 594.723 199.56C593.331 200.784 591.555 201.396 589.395 201.396C586.827 201.396 584.751 200.52 583.167 198.768C581.607 196.992 580.827 194.712 580.827 191.928C580.827 189.168 581.607 186.9 583.167 185.124C584.751 183.348 586.827 182.46 589.395 182.46C591.627 182.46 593.415 183.084 594.759 184.332C596.103 185.58 596.907 187.02 597.171 188.652H594.075C593.787 187.74 593.259 186.948 592.491 186.276C591.723 185.604 590.691 185.268 589.395 185.268C587.763 185.268 586.455 185.88 585.471 187.104C584.487 188.328 583.995 189.936 583.995 191.928C583.995 193.92 584.487 195.528 585.471 196.752C586.479 197.976 587.799 198.588 589.431 198.588ZM602.609 193.44L602.393 175.656H605.741L605.525 193.44H602.609ZM602.501 197.652C602.933 197.22 603.461 197.004 604.085 197.004C604.709 197.004 605.237 197.22 605.669 197.652C606.101 198.06 606.317 198.576 606.317 199.2C606.317 199.824 606.101 200.352 605.669 200.784C605.237 201.192 604.709 201.396 604.085 201.396C603.461 201.396 602.933 201.192 602.501 200.784C602.069 200.352 601.853 199.824 601.853 199.2C601.853 198.576 602.069 198.06 602.501 197.652Z" fill="#6B7E99"/>
<defs>
<clipPath id="clip0_301_11">
<rect width="150" height="150" fill="white"/>
</clipPath>
</defs>
</svg>
