<svg width="256" height="256" viewBox="0 0 256 256" fill="none" xmlns="http://www.w3.org/2000/svg">
<path d="M242.182 61.9295C235.81 61.2458 179.455 55.4351 164.03 61.3159C155.897 64.4067 149.221 70.4397 145.325 78.2198C141.429 85.9999 140.598 94.9595 142.996 103.324C143.197 104.016 143.443 104.761 143.741 105.585L145.108 109.327L158.316 104.375L156.992 100.712C155.164 95.6393 155.399 90.0518 157.648 85.1511C159.897 80.2504 163.979 76.4281 169.017 74.5063C176.318 71.728 202.961 72.7534 226.441 74.6465C218.255 83.2268 204.732 97.0132 194.057 105.848C190.333 108.911 186.975 112.393 184.048 116.225L180.2 121.282L179.771 121.895C175.468 128.03 173.478 133.85 169.552 145.98L168.807 148.267C156.335 186.699 131.365 207.865 94.5726 211.169L107.334 175.691L94.1344 170.958L74.511 225.709L84.5111 225.665C109.113 225.578 129.998 219.083 146.58 206.384C162.619 194.114 174.626 175.998 182.19 152.614L182.935 150.318C188.001 134.682 188.912 131.913 196.853 123.21C200.135 119.652 203.614 116.281 207.274 113.113C223.838 98.6784 242.988 77.7316 246.661 73.6737L255.986 63.3843L242.182 61.9295Z" fill="#0071BC"/>
<path d="M185.441 89.7387C185.813 88.5837 185.833 87.3445 185.501 86.1778C185.168 85.011 184.497 83.9692 183.572 83.1839C182.647 82.3986 181.51 81.9052 180.305 81.766C179.099 81.6269 177.88 81.8482 176.8 82.4021C175.721 82.9559 174.83 83.8174 174.24 84.8776C173.65 85.9378 173.388 87.1491 173.486 88.3583C173.585 89.5676 174.039 90.7206 174.793 91.6714C175.547 92.6222 176.565 93.3283 177.72 93.7002C178.487 93.9473 179.295 94.0408 180.099 93.9754C180.902 93.9101 181.684 93.6871 182.401 93.3192C183.119 92.9513 183.756 92.4457 184.278 91.8314C184.799 91.2171 185.195 90.506 185.441 89.7387V89.7387Z" fill="#0071BC"/>
<path d="M119.989 139.582C131.611 103.464 111.015 64.4185 74.0816 52.5428L7.10438 31L3.213 43.1036C0.277413 52.3293 -0.661734 62.0741 0.457983 71.6906C1.5777 81.3072 4.73063 90.5755 9.70737 98.8799C18.6019 113.761 32.6281 124.88 49.147 130.142L116.124 151.676L119.989 139.582ZM107.027 134.034L53.4152 116.794C40.1559 112.567 28.8959 103.644 21.7496 91.702C17.9077 85.2961 15.4297 78.1661 14.4705 70.7583C13.5114 63.3505 14.0918 55.8245 16.1755 48.6514L69.787 65.8909C98.9285 75.26 115.406 105.628 107.027 134.034V134.034Z" fill="#0071BC"/>
</svg>
