<?xml version="1.0" encoding="utf-8"?>
<!-- Generator: Adobe Illustrator 25.4.1, SVG Export Plug-In . SVG Version: 6.00 Build 0)  -->
<svg version="1.1" id="Слой_1" xmlns="http://www.w3.org/2000/svg" xmlns:xlink="http://www.w3.org/1999/xlink" x="0px" y="0px"
	 viewBox="0 0 82 142" style="enable-background:new 0 0 82 142;" xml:space="preserve">
<style type="text/css">
	.st0{fill:#FFFFFF;}
</style>
<path class="st0" d="M41.1,72.8c15.4,0,28-12.6,28-28c0-15.4-12.6-28-28-28c-15.6,0-28.2,12.6-28.2,28
	C12.9,60.2,25.5,72.8,41.1,72.8z M41.1,33.2c6.4,0,11.6,5.2,11.6,11.6s-5.2,11.6-11.6,11.6s-11.6-5.2-11.6-11.6
	C29.4,38.4,34.6,33.2,41.1,33.2z"/>
<path class="st0" d="M52.4,95.8c5.7-1.3,11.2-3.5,16.3-6.7c3.9-2.3,5-7.6,2.5-11.4c-2.3-3.9-7.6-5-11.4-2.5
	c-11.4,7.2-26.3,7.2-37.8,0c-3.9-2.3-8.9-1.3-11.4,2.5c-2.2,3.9-1,8.9,2.9,11.2c5,3.2,10.6,5.4,16.3,6.7l-15.6,15.6
	c-3.2,3.2-3.2,8.4,0,11.6c1.7,1.7,3.7,2.3,5.9,2.3c2.2,0,4.2-0.8,5.9-2.3l15.4-15.4l15.4,15.4c3.2,3.2,8.4,3.2,11.6,0
	c3.2-3.2,3.2-8.4,0-11.6L52.4,95.8z"/>
</svg>
